8_US_stride6.mot
nRows=157
nColumns=3

name 8_US_stride6.mot
datacolumns 3
datarows 157
range 3.240000 4.020000
endheader
time	soleus_l	med_gas_l
        3.2400000000	       33.7912121680	       38.5742536684	
        3.2450000000	       33.7922307507	       38.3740216513	
        3.2500000000	       33.8305520866	       38.2246108628	
        3.2550000000	       33.9180507458	       38.0916552911	
        3.2600000000	       34.0198629461	       37.9670014326	
        3.2650000000	       34.1761361089	       37.7780481312	
        3.2700000000	       34.3986267588	       37.4904158754	
        3.2750000000	       34.6312704093	       37.1505107853	
        3.2800000000	       34.8484518651	       36.7762323220	
        3.2850000000	       35.0127279907	       36.4087865673	
        3.2900000000	       35.0955877272	       36.1284048807	
        3.2950000000	       35.1278882824	       35.8727484369	
        3.3000000000	       35.1156618005	       35.5342091851	
        3.3050000000	       35.0438649704	       35.1984898912	
        3.3100000000	       34.9077073268	       34.8270901227	
        3.3150000000	       34.7483303557	       34.4907687093	
        3.3200000000	       34.5850912172	       34.1959709346	
        3.3250000000	       34.3471877689	       33.8088622227	
        3.3300000000	       34.0866237551	       33.4205852031	
        3.3350000000	       33.8319329548	       33.0610231527	
        3.3400000000	       33.5966952395	       32.7341746931	
        3.3450000000	       33.3957118308	       32.4484701237	
        3.3500000000	       33.2645906987	       32.2521691255	
        3.3550000000	       33.1242648874	       32.0223441606	
        3.3600000000	       32.9791126317	       31.7515290151	
        3.3650000000	       32.8561252739	       31.4807233742	
        3.3700000000	       32.7426921299	       31.1880252127	
        3.3750000000	       32.6303626336	       30.8734632507	
        3.3800000000	       32.5370042888	       30.6241109677	
        3.3850000000	       32.4388996513	       30.3919683576	
        3.3900000000	       32.2844052280	       30.1018213839	
        3.3950000000	       32.0958988216	       29.8469711350	
        3.4000000000	       31.8685209798	       29.6340376833	
        3.4050000000	       31.5938447652	       29.4597945989	
        3.4100000000	       31.3030340422	       29.3299903054	
        3.4150000000	       31.0449586357	       29.2422447234	
        3.4200000000	       30.6619372086	       29.1307568553	
        3.4250000000	       30.1886929134	       29.0044361868	
        3.4300000000	       29.6781634713	       28.8686659777	
        3.4350000000	       29.1373985872	       28.7184302145	
        3.4400000000	       28.6027883773	       28.5606585263	
        3.4450000000	       28.2178882208	       28.4380362359	
        3.4500000000	       27.8400957171	       28.3034073548	
        3.4550000000	       27.4173180087	       28.1254609626	
        3.4600000000	       27.0280100717	       27.9180504050	
        3.4650000000	       26.6519704716	       27.6735393788	
        3.4700000000	       26.3472750771	       27.4592817723	
        3.4750000000	       26.0359808812	       27.2396202540	
        3.4800000000	       25.5604773171	       26.9288234727	
        3.4850000000	       25.0390973248	       26.6314012396	
        3.4900000000	       24.4856115792	       26.3559572873	
        3.4950000000	       23.9000391862	       26.0939137048	
        3.5000000000	       23.3864585894	       25.8767925576	
        3.5050000000	       23.0291147661	       25.7275611862	
        3.5100000000	       22.6227828531	       25.5558566988	
        3.5150000000	       22.2882820786	       25.4272935586	
        3.5200000000	       22.0925105658	       25.3910991525	
        3.5250000000	       22.0154272375	       25.4455812958	
        3.5300000000	       22.0535529739	       25.6486980502	
        3.5350000000	       22.1380407576	       25.8689126749	
        3.5400000000	       22.2826417395	       26.1644991780	
        3.5450000000	       22.5110432760	       26.5960115227	
        3.5500000000	       22.7493469728	       27.0136616802	
        3.5550000000	       22.9822311629	       27.3950467419	
        3.5600000000	       23.1961990477	       27.7320605317	
        3.5650000000	       23.3597247972	       27.9930079071	
        3.5700000000	       23.4874095149	       28.2051293787	
        3.5750000000	       23.6514344901	       28.4946449265	
        3.5800000000	       23.8362907848	       28.8128178669	
        3.5850000000	       24.0552295522	       29.1371696765	
        3.5900000000	       24.3040782312	       29.4261560538	
        3.5950000000	       24.5512720784	       29.6438673861	
        3.6000000000	       24.9227458301	       29.8819479431	
        3.6050000000	       25.3993662086	       30.0913174203	
        3.6100000000	       25.9242396017	       30.2429766709	
        3.6150000000	       26.4728986443	       30.3405102232	
        3.6200000000	       27.0147013597	       30.3855429881	
        3.6250000000	       27.3761500087	       30.3766477744	
        3.6300000000	       27.7151216448	       30.3467241809	
        3.6350000000	       28.0762127690	       30.2668852459	
        3.6400000000	       28.3600532063	       30.1796992134	
        3.6450000000	       28.6005325844	       30.1216878314	
        3.6500000000	       28.8369592425	       30.1326650289	
        3.6550000000	       29.0421255617	       30.1848912957	
        3.6600000000	       29.2254642383	       30.2816228020	
        3.6650000000	       29.4850740634	       30.4362177011	
        3.6700000000	       29.7491327508	       30.5875621997	
        3.6750000000	       29.9995017917	       30.6783048476	
        3.6800000000	       30.2294352996	       30.6987909650	
        3.6850000000	       30.4280410538	       30.6414039480	
        3.6900000000	       30.5713054755	       30.5567508923	
        3.6950000000	       30.7361303689	       30.4406681219	
        3.7000000000	       30.9231496652	       30.3182273680	
        3.7050000000	       31.0953161107	       30.2497551244	
        3.7100000000	       31.2464814504	       30.2429481218	
        3.7150000000	       31.3330466535	       30.2780248849	
        3.7200000000	       31.3981774607	       30.3630821389	
        3.7250000000	       31.4511722560	       30.5136877948	
        3.7300000000	       31.4886895782	       30.6830048866	
        3.7350000000	       31.5530118917	       30.8426865488	
        3.7400000000	       31.6813711365	       30.9712529112	
        3.7450000000	       31.8562282370	       31.0229193542	
        3.7500000000	       32.0587248575	       31.0379500744	
        3.7550000000	       32.3983720962	       30.9912559907	
        3.7600000000	       32.7938987596	       30.8868891929	
        3.7650000000	       33.1911274531	       30.7436309157	
        3.7700000000	       33.5535320292	       30.5914978020	
        3.7750000000	       33.8377703337	       30.4636610977	
        3.7800000000	       34.0002722729	       30.3894272161	
        3.7850000000	       34.1360274487	       30.3398239177	
        3.7900000000	       34.2490671972	       30.3218580316	
        3.7950000000	       34.3387277128	       30.3412965703	
        3.8000000000	       34.4358529323	       30.3996585412	
        3.8050000000	       34.5734161414	       30.4940015741	
        3.8100000000	       34.7144173994	       30.6027842713	
        3.8150000000	       34.8746077006	       30.7443307967	
        3.8200000000	       35.1181704858	       31.0111354169	
        3.8250000000	       35.3713380972	       31.3663203383	
        3.8300000000	       35.6273805766	       31.8018959428	
        3.8350000000	       35.8841529315	       32.2740337931	
        3.8400000000	       36.1173485679	       32.6690654847	
        3.8450000000	       36.3033652024	       32.9276894855	
        3.8500000000	       36.5520340740	       33.1448928574	
        3.8550000000	       36.8163349778	       33.2105486053	
        3.8600000000	       37.0399041976	       33.2069094198	
        3.8650000000	       37.1873777813	       33.1590028318	
        3.8700000000	       37.2309870206	       33.1840354354	
        3.8750000000	       37.2109663332	       33.2952380573	
        3.8800000000	       37.0838025862	       33.6394803943	
        3.8850000000	       36.8796299274	       34.1990855340	
        3.8900000000	       36.6588060173	       34.9187385996	
        3.8950000000	       36.4579796969	       35.7445943140	
        3.9000000000	       36.3320772688	       36.4063658845	
        3.9050000000	       36.2374548033	       37.0149280551	
        3.9100000000	       36.1436687414	       37.7492807268	
        3.9150000000	       36.0727060129	       38.3595480937	
        3.9200000000	       36.0168333220	       38.8191292967	
        3.9250000000	       35.9729421489	       39.1009690570	
        3.9300000000	       35.9374604826	       39.1905788143	
        3.9350000000	       35.9067398763	       39.1930122095	
        3.9400000000	       35.8405651122	       39.1394946586	
        3.9450000000	       35.7199762583	       39.0355026214	
        3.9500000000	       35.5427011196	       38.9925047493	
        3.9550000000	       35.3168531936	       39.0182850431	
        3.9600000000	       35.0596272104	       39.1858748128	
        3.9650000000	       34.8996709829	       39.3650696055	
        3.9700000000	       34.7687324349	       39.5892775389	
        3.9750000000	       34.6608039552	       39.8687945064	
        3.9800000000	       34.6103040518	       40.0643255957	
        3.9850000000	       34.5733860902	       40.1159584000	
        3.9900000000	       34.5402854382	       40.0592182761	
        3.9950000000	       34.4974533654	       39.9120432588	
        4.0000000000	       34.4321980424	       39.6579209320	
        4.0050000000	       34.3784440468	       39.4127620663	
        4.0100000000	       34.3640835598	       39.2306928658	
        4.0150000000	       34.3809548039	       39.1897122119	
        4.0200000000	       34.4206052814	       39.1956013284	
